<?xml version="1.0" encoding="UTF-8"?>
<svg xmlns="http://www.w3.org/2000/svg" xmlns:xlink="http://www.w3.org/1999/xlink" version="1.1" id="Capa_1" x="0px" y="0px" viewBox="0 0 512.014 512.014" style="enable-background:new 0 0 512.014 512.014;" xml:space="preserve" width="512" height="512">
<g>
	<path style="fill:none;stroke:#000000;stroke-width:20;stroke-linecap:round;stroke-linejoin:round;stroke-miterlimit:10;" d="&#10;&#9;&#9;M396.163,146.371L280.16,108.87l-81.652,35.107l-12.555,61.52c-2.485,12.178,4.41,24.319,16.142,28.423l0,0&#10;&#9;&#9;c12.727,4.452,26.683-2.058,31.449-14.67l11.422-30.223l41.492-2.355"/>
	
		<line style="fill:none;stroke:#000000;stroke-width:20;stroke-linecap:round;stroke-linejoin:round;stroke-miterlimit:10;" x1="115.866" y1="146.371" x2="239.49" y2="126.356"/>
	
		<line style="fill:none;stroke:#000000;stroke-width:20;stroke-linecap:round;stroke-linejoin:round;stroke-miterlimit:10;" x1="429.387" y1="286.446" x2="402.62" y2="303.151"/>
	
		<polygon style="fill:none;stroke:#000000;stroke-width:20;stroke-linecap:round;stroke-linejoin:round;stroke-miterlimit:10;" points="&#10;&#9;&#9;502.014,279.485 437.388,297.155 391.903,130.792 456.687,113.08 &#9;"/>
	
		<line style="fill:none;stroke:#000000;stroke-width:20;stroke-linecap:round;stroke-linejoin:round;stroke-miterlimit:10;" x1="82.785" y1="286.446" x2="112.952" y2="297.576"/>
	
		<rect x="31.554" y="118.883" transform="matrix(-0.9646 -0.2637 0.2637 -0.9646 73.8674 420.1505)" style="fill:none;stroke:#000000;stroke-width:20;stroke-linecap:round;stroke-linejoin:round;stroke-miterlimit:10;" width="67.162" height="172.468"/>
	<path style="fill:none;stroke:#000000;stroke-width:20;stroke-linecap:round;stroke-linejoin:round;stroke-miterlimit:10;" d="&#10;&#9;&#9;M286.457,186.67l109.939,106.991c8.298,8.298,8.298,21.752,0,30.051l0,0c-8.298,8.298-21.752,8.298-30.051,0l-47.561-47.561"/>
	<path style="fill:none;stroke:#000000;stroke-width:20;stroke-linecap:round;stroke-linejoin:round;stroke-miterlimit:10;" d="&#10;&#9;&#9;M285.198,242.565l81.264,81.264c8.298,8.298,8.298,21.752,0,30.051l0,0c-8.298,8.298-21.752,8.298-30.051,0l-47.561-47.561"/>
	<path style="fill:none;stroke:#000000;stroke-width:20;stroke-linecap:round;stroke-linejoin:round;stroke-miterlimit:10;" d="&#10;&#9;&#9;M254.488,271.956l74.531,74.531c8.298,8.298,8.298,21.752,0,30.051l0,0c-8.298,8.298-21.752,8.298-30.051,0l-35.306-35.306"/>
	<path style="fill:none;stroke:#000000;stroke-width:20;stroke-linecap:round;stroke-linejoin:round;stroke-miterlimit:10;" d="&#10;&#9;&#9;M266.723,344.293l22.578,22.578c8.298,8.298,8.298,21.752,0,30.051l0,0c-8.298,8.298-21.752,8.298-30.051,0l-5.643-5.643"/>
	<path style="fill:none;stroke:#000000;stroke-width:20;stroke-linecap:round;stroke-linejoin:round;stroke-miterlimit:10;" d="&#10;&#9;&#9;M210.988,395.523L210.988,395.523c8.298,8.298,21.752,8.298,30.051,0l23.432-23.432c8.298-8.298,8.298-21.752,0-30.051l0,0&#10;&#9;&#9;c-8.298-8.298-21.752-8.298-30.051,0l-23.432,23.432C202.69,373.77,202.69,387.225,210.988,395.523z"/>
	<path style="fill:none;stroke:#000000;stroke-width:20;stroke-linecap:round;stroke-linejoin:round;stroke-miterlimit:10;" d="&#10;&#9;&#9;M178.613,367.796L178.613,367.796c8.298,8.298,21.752,8.298,30.051,0l19.197-19.197c8.298-8.298,8.298-21.752,0-30.051l0,0&#10;&#9;&#9;c-8.298-8.298-21.752-8.298-30.051,0l-19.197,19.197C170.315,346.044,170.315,359.498,178.613,367.796z"/>
	<path style="fill:none;stroke:#000000;stroke-width:20;stroke-linecap:round;stroke-linejoin:round;stroke-miterlimit:10;" d="&#10;&#9;&#9;M145.744,340.564L145.744,340.564c8.298,8.298,21.752,8.298,30.051,0l15.745-15.745c8.298-8.298,8.298-21.752,0-30.051l0,0&#10;&#9;&#9;c-8.298-8.298-21.752-8.298-30.051,0l-15.745,15.745C137.446,318.811,137.446,332.265,145.744,340.564z"/>
	<path style="fill:none;stroke:#000000;stroke-width:20;stroke-linecap:round;stroke-linejoin:round;stroke-miterlimit:10;" d="&#10;&#9;&#9;M118.585,307.621L118.585,307.621c8.298,8.298,21.752,8.298,30.051,0l6.745-6.745c8.298-8.298,8.298-21.752,0-30.051l0,0&#10;&#9;&#9;c-8.298-8.298-21.752-8.298-30.051,0l-6.745,6.745C110.287,285.869,110.287,299.323,118.585,307.621z"/>
</g>















</svg>
