<svg id="Layer_1" height="512" viewBox="0 0 64 64" width="512" xmlns="http://www.w3.org/2000/svg" data-name="Layer 1"><path d="m32 17a8 8 0 1 0 -8-8 8.009 8.009 0 0 0 8 8zm0-14a6 6 0 1 1 -6 6 6.006 6.006 0 0 1 6-6z"/><path d="m32.5 11h-1a.5.5 0 0 1 -.5-.5h-2a2.5 2.5 0 0 0 2 2.449v1.051h2v-1.051a2.5 2.5 0 0 0 -.5-4.949h-1a.5.5 0 0 1 0-1h1a.5.5 0 0 1 .5.5h2a2.5 2.5 0 0 0 -2-2.449v-1.051h-2v1.051a2.5 2.5 0 0 0 .5 4.949h1a.5.5 0 0 1 0 1z"/><path d="m9 28a8 8 0 1 0 -8-8 8.009 8.009 0 0 0 8 8zm0-14a6 6 0 1 1 -6 6 6.006 6.006 0 0 1 6-6z"/><path d="m5 21h2v2h-2z"/><path d="m8 19h2v4h-2z"/><path d="m11 17h2v6h-2z"/><path d="m28.465 24.707 3.535 3.536a1 1 0 0 0 1.414 0l4.243-4.243 1.414 1.414a1 1 0 0 0 .707.293 1.016 1.016 0 0 0 .267-.036 1 1 0 0 0 .7-.721l1.414-5.657a1 1 0 0 0 -1.209-1.213l-5.657 1.414a1 1 0 0 0 -.465 1.677l1.415 1.415-3.536 3.536-3.535-3.536a1 1 0 0 0 -1.414 0l-5.658 5.657 1.414 1.414zm11.353-4.282-.582 2.326-1.745-1.745z"/><path d="m55 12a8 8 0 1 0 8 8 8.009 8.009 0 0 0 -8-8zm2 13.65a5.889 5.889 0 0 1 -4 0v-3a.689.689 0 0 1 .687-.688h2.625a.689.689 0 0 1 .688.688zm-2.75-7.4a.75.75 0 1 1 .75.75.751.751 0 0 1 -.75-.75zm4.75 6.21v-1.809a2.684 2.684 0 0 0 -1.959-2.575 2.75 2.75 0 1 0 -4.082 0 2.684 2.684 0 0 0 -1.959 2.575v1.809a6 6 0 1 1 8 0z"/><path d="m22 39v3h-9a1 1 0 0 0 -1 1v4a1 1 0 0 0 1 1v13a1 1 0 0 0 1 1h8v.043a1 1 0 0 0 1 1h18a1 1 0 0 0 1-1v-.043h8a1 1 0 0 0 1-1v-13a1 1 0 0 0 1-1v-4a1 1 0 0 0 -1-1h-9v-3a1 1 0 0 0 1-1v-4a1 1 0 0 0 -1-1h-20a1 1 0 0 0 -1 1v4a1 1 0 0 0 1 1zm0 21h-7v-12h7zm0-14h-8v-2h8zm20-2h8v2h-8zm0 4h7v12h-7zm-8 13h-4v-4h4zm6 0v.043h-4v-5.043a1 1 0 0 0 -1-1h-6a1 1 0 0 0 -1 1v5.043h-4v-22.043h16zm-17-26h18v2h-18z"/><path d="m27 46h3a1 1 0 0 0 1-1v-3a1 1 0 0 0 -1-1h-3a1 1 0 0 0 -1 1v3a1 1 0 0 0 1 1zm1-3h1v1h-1z"/><path d="m34 46h3a1 1 0 0 0 1-1v-3a1 1 0 0 0 -1-1h-3a1 1 0 0 0 -1 1v3a1 1 0 0 0 1 1zm1-3h1v1h-1z"/><path d="m27 53h3a1 1 0 0 0 1-1v-3a1 1 0 0 0 -1-1h-3a1 1 0 0 0 -1 1v3a1 1 0 0 0 1 1zm1-3h1v1h-1z"/><path d="m34 53h3a1 1 0 0 0 1-1v-3a1 1 0 0 0 -1-1h-3a1 1 0 0 0 -1 1v3a1 1 0 0 0 1 1zm1-3h1v1h-1z"/></svg>